<mxfile host="65bd71144e">
    <diagram id="C5RBs43oDa-KdzZeNtuy" name="Page-1">
        <mxGraphModel dx="1081" dy="-1397" grid="1" gridSize="10" guides="1" tooltips="1" connect="1" arrows="1" fold="1" page="1" pageScale="1" pageWidth="827" pageHeight="1169" math="0" shadow="0">
            <root>
                <mxCell id="WIyWlLk6GJQsqaUBKTNV-0"/>
                <mxCell id="WIyWlLk6GJQsqaUBKTNV-1" parent="WIyWlLk6GJQsqaUBKTNV-0"/>
                <mxCell id="8h195-x0wi-ZMAP4BCXr-0" value="Main" style="swimlane;fontStyle=1;align=center;verticalAlign=top;childLayout=stackLayout;horizontal=1;startSize=26.782608695652176;horizontalStack=0;resizeParent=1;resizeParentMax=0;resizeLast=0;collapsible=0;marginBottom=0;fillColor=#dae8fc;strokeColor=#6c8ebf;fontSize=18;" parent="WIyWlLk6GJQsqaUBKTNV-1" vertex="1">
                    <mxGeometry x="1143" y="2580" width="327" height="628.7826086956522" as="geometry"/>
                </mxCell>
                <mxCell id="8h195-x0wi-ZMAP4BCXr-1" value="- Scanner scanner" style="text;strokeColor=none;fillColor=none;align=left;verticalAlign=top;spacingLeft=4;spacingRight=4;overflow=hidden;rotatable=0;points=[[0,0.5],[1,0.5]];portConstraint=eastwest;fontSize=18;" parent="8h195-x0wi-ZMAP4BCXr-0" vertex="1">
                    <mxGeometry y="26.782608695652176" width="327" height="27" as="geometry"/>
                </mxCell>
                <mxCell id="8h195-x0wi-ZMAP4BCXr-2" value="- DataStore store" style="text;strokeColor=none;fillColor=none;align=left;verticalAlign=top;spacingLeft=4;spacingRight=4;overflow=hidden;rotatable=0;points=[[0,0.5],[1,0.5]];portConstraint=eastwest;fontSize=18;" parent="8h195-x0wi-ZMAP4BCXr-0" vertex="1">
                    <mxGeometry y="53.78260869565217" width="327" height="27" as="geometry"/>
                </mxCell>
                <mxCell id="8h195-x0wi-ZMAP4BCXr-3" value="- Stack deletedBudgets" style="text;strokeColor=none;fillColor=none;align=left;verticalAlign=top;spacingLeft=4;spacingRight=4;overflow=hidden;rotatable=0;points=[[0,0.5],[1,0.5]];portConstraint=eastwest;fontSize=18;" parent="8h195-x0wi-ZMAP4BCXr-0" vertex="1">
                    <mxGeometry y="80.78260869565217" width="327" height="27" as="geometry"/>
                </mxCell>
                <mxCell id="8h195-x0wi-ZMAP4BCXr-4" value="- Stack deletedExpenses" style="text;strokeColor=none;fillColor=none;align=left;verticalAlign=top;spacingLeft=4;spacingRight=4;overflow=hidden;rotatable=0;points=[[0,0.5],[1,0.5]];portConstraint=eastwest;fontSize=18;" parent="8h195-x0wi-ZMAP4BCXr-0" vertex="1">
                    <mxGeometry y="107.78260869565217" width="327" height="27" as="geometry"/>
                </mxCell>
                <mxCell id="8h195-x0wi-ZMAP4BCXr-5" value="- Queue recentActions" style="text;strokeColor=none;fillColor=none;align=left;verticalAlign=top;spacingLeft=4;spacingRight=4;overflow=hidden;rotatable=0;points=[[0,0.5],[1,0.5]];portConstraint=eastwest;fontSize=18;" parent="8h195-x0wi-ZMAP4BCXr-0" vertex="1">
                    <mxGeometry y="134.7826086956522" width="327" height="27" as="geometry"/>
                </mxCell>
                <mxCell id="8h195-x0wi-ZMAP4BCXr-6" style="line;strokeWidth=1;fillColor=none;align=left;verticalAlign=middle;spacingTop=-1;spacingLeft=3;spacingRight=3;rotatable=0;labelPosition=right;points=[];portConstraint=eastwest;strokeColor=inherit;fontSize=18;" parent="8h195-x0wi-ZMAP4BCXr-0" vertex="1">
                    <mxGeometry y="161.7826086956522" width="327" height="8" as="geometry"/>
                </mxCell>
                <mxCell id="8h195-x0wi-ZMAP4BCXr-7" value="+ main(String[])" style="text;strokeColor=none;fillColor=none;align=left;verticalAlign=top;spacingLeft=4;spacingRight=4;overflow=hidden;rotatable=0;points=[[0,0.5],[1,0.5]];portConstraint=eastwest;fontSize=18;" parent="8h195-x0wi-ZMAP4BCXr-0" vertex="1">
                    <mxGeometry y="169.7826086956522" width="327" height="27" as="geometry"/>
                </mxCell>
                <mxCell id="8h195-x0wi-ZMAP4BCXr-8" value="- login()" style="text;strokeColor=none;fillColor=none;align=left;verticalAlign=top;spacingLeft=4;spacingRight=4;overflow=hidden;rotatable=0;points=[[0,0.5],[1,0.5]];portConstraint=eastwest;fontSize=18;" parent="8h195-x0wi-ZMAP4BCXr-0" vertex="1">
                    <mxGeometry y="196.7826086956522" width="327" height="27" as="geometry"/>
                </mxCell>
                <mxCell id="8h195-x0wi-ZMAP4BCXr-9" value="- register()" style="text;strokeColor=none;fillColor=none;align=left;verticalAlign=top;spacingLeft=4;spacingRight=4;overflow=hidden;rotatable=0;points=[[0,0.5],[1,0.5]];portConstraint=eastwest;fontSize=18;" parent="8h195-x0wi-ZMAP4BCXr-0" vertex="1">
                    <mxGeometry y="223.7826086956522" width="327" height="27" as="geometry"/>
                </mxCell>
                <mxCell id="8h195-x0wi-ZMAP4BCXr-10" value="- dashboard(User)" style="text;strokeColor=none;fillColor=none;align=left;verticalAlign=top;spacingLeft=4;spacingRight=4;overflow=hidden;rotatable=0;points=[[0,0.5],[1,0.5]];portConstraint=eastwest;fontSize=18;" parent="8h195-x0wi-ZMAP4BCXr-0" vertex="1">
                    <mxGeometry y="250.7826086956522" width="327" height="27" as="geometry"/>
                </mxCell>
                <mxCell id="8h195-x0wi-ZMAP4BCXr-11" value="- manageBudgets(User)" style="text;strokeColor=none;fillColor=none;align=left;verticalAlign=top;spacingLeft=4;spacingRight=4;overflow=hidden;rotatable=0;points=[[0,0.5],[1,0.5]];portConstraint=eastwest;fontSize=18;" parent="8h195-x0wi-ZMAP4BCXr-0" vertex="1">
                    <mxGeometry y="277.7826086956522" width="327" height="27" as="geometry"/>
                </mxCell>
                <mxCell id="8h195-x0wi-ZMAP4BCXr-12" value="- listBudgets(User)" style="text;strokeColor=none;fillColor=none;align=left;verticalAlign=top;spacingLeft=4;spacingRight=4;overflow=hidden;rotatable=0;points=[[0,0.5],[1,0.5]];portConstraint=eastwest;fontSize=18;" parent="8h195-x0wi-ZMAP4BCXr-0" vertex="1">
                    <mxGeometry y="304.7826086956522" width="327" height="27" as="geometry"/>
                </mxCell>
                <mxCell id="8h195-x0wi-ZMAP4BCXr-13" value="- createBudget(User)" style="text;strokeColor=none;fillColor=none;align=left;verticalAlign=top;spacingLeft=4;spacingRight=4;overflow=hidden;rotatable=0;points=[[0,0.5],[1,0.5]];portConstraint=eastwest;fontSize=18;" parent="8h195-x0wi-ZMAP4BCXr-0" vertex="1">
                    <mxGeometry y="331.7826086956522" width="327" height="27" as="geometry"/>
                </mxCell>
                <mxCell id="8h195-x0wi-ZMAP4BCXr-14" value="- budgetActions(User, Budget)" style="text;strokeColor=none;fillColor=none;align=left;verticalAlign=top;spacingLeft=4;spacingRight=4;overflow=hidden;rotatable=0;points=[[0,0.5],[1,0.5]];portConstraint=eastwest;fontSize=18;" parent="8h195-x0wi-ZMAP4BCXr-0" vertex="1">
                    <mxGeometry y="358.7826086956522" width="327" height="27" as="geometry"/>
                </mxCell>
                <mxCell id="8h195-x0wi-ZMAP4BCXr-15" value="- listExpenses(Budget)" style="text;strokeColor=none;fillColor=none;align=left;verticalAlign=top;spacingLeft=4;spacingRight=4;overflow=hidden;rotatable=0;points=[[0,0.5],[1,0.5]];portConstraint=eastwest;fontSize=18;" parent="8h195-x0wi-ZMAP4BCXr-0" vertex="1">
                    <mxGeometry y="385.7826086956522" width="327" height="27" as="geometry"/>
                </mxCell>
                <mxCell id="8h195-x0wi-ZMAP4BCXr-16" value="- expenseActions(Budget, Expense)" style="text;strokeColor=none;fillColor=none;align=left;verticalAlign=top;spacingLeft=4;spacingRight=4;overflow=hidden;rotatable=0;points=[[0,0.5],[1,0.5]];portConstraint=eastwest;fontSize=18;" parent="8h195-x0wi-ZMAP4BCXr-0" vertex="1">
                    <mxGeometry y="412.7826086956522" width="327" height="27" as="geometry"/>
                </mxCell>
                <mxCell id="8h195-x0wi-ZMAP4BCXr-17" value="- viewAllExpenses(User)" style="text;strokeColor=none;fillColor=none;align=left;verticalAlign=top;spacingLeft=4;spacingRight=4;overflow=hidden;rotatable=0;points=[[0,0.5],[1,0.5]];portConstraint=eastwest;fontSize=18;" parent="8h195-x0wi-ZMAP4BCXr-0" vertex="1">
                    <mxGeometry y="439.7826086956522" width="327" height="27" as="geometry"/>
                </mxCell>
                <mxCell id="8h195-x0wi-ZMAP4BCXr-18" value="- undoDeletion(User)" style="text;strokeColor=none;fillColor=none;align=left;verticalAlign=top;spacingLeft=4;spacingRight=4;overflow=hidden;rotatable=0;points=[[0,0.5],[1,0.5]];portConstraint=eastwest;fontSize=18;" parent="8h195-x0wi-ZMAP4BCXr-0" vertex="1">
                    <mxGeometry y="466.7826086956522" width="327" height="27" as="geometry"/>
                </mxCell>
                <mxCell id="8h195-x0wi-ZMAP4BCXr-19" value="- showRecentAdds()" style="text;strokeColor=none;fillColor=none;align=left;verticalAlign=top;spacingLeft=4;spacingRight=4;overflow=hidden;rotatable=0;points=[[0,0.5],[1,0.5]];portConstraint=eastwest;fontSize=18;" parent="8h195-x0wi-ZMAP4BCXr-0" vertex="1">
                    <mxGeometry y="493.7826086956522" width="327" height="27" as="geometry"/>
                </mxCell>
                <mxCell id="8h195-x0wi-ZMAP4BCXr-20" value="- searchBudgets(User)" style="text;strokeColor=none;fillColor=none;align=left;verticalAlign=top;spacingLeft=4;spacingRight=4;overflow=hidden;rotatable=0;points=[[0,0.5],[1,0.5]];portConstraint=eastwest;fontSize=18;" parent="8h195-x0wi-ZMAP4BCXr-0" vertex="1">
                    <mxGeometry y="520.7826086956522" width="327" height="27" as="geometry"/>
                </mxCell>
                <mxCell id="8h195-x0wi-ZMAP4BCXr-21" value="- showSortedBudgets(User)" style="text;strokeColor=none;fillColor=none;align=left;verticalAlign=top;spacingLeft=4;spacingRight=4;overflow=hidden;rotatable=0;points=[[0,0.5],[1,0.5]];portConstraint=eastwest;fontSize=18;" parent="8h195-x0wi-ZMAP4BCXr-0" vertex="1">
                    <mxGeometry y="547.7826086956522" width="327" height="27" as="geometry"/>
                </mxCell>
                <mxCell id="8h195-x0wi-ZMAP4BCXr-22" value="- quickSort(Budget[], int, int)" style="text;strokeColor=none;fillColor=none;align=left;verticalAlign=top;spacingLeft=4;spacingRight=4;overflow=hidden;rotatable=0;points=[[0,0.5],[1,0.5]];portConstraint=eastwest;fontSize=18;" parent="8h195-x0wi-ZMAP4BCXr-0" vertex="1">
                    <mxGeometry y="574.7826086956522" width="327" height="27" as="geometry"/>
                </mxCell>
                <mxCell id="8h195-x0wi-ZMAP4BCXr-23" value="- partition(Budget[], int, int)" style="text;strokeColor=none;fillColor=none;align=left;verticalAlign=top;spacingLeft=4;spacingRight=4;overflow=hidden;rotatable=0;points=[[0,0.5],[1,0.5]];portConstraint=eastwest;fontSize=18;" parent="8h195-x0wi-ZMAP4BCXr-0" vertex="1">
                    <mxGeometry y="601.7826086956522" width="327" height="27" as="geometry"/>
                </mxCell>
                <mxCell id="8h195-x0wi-ZMAP4BCXr-24" value="User" style="swimlane;fontStyle=1;align=center;verticalAlign=top;childLayout=stackLayout;horizontal=1;startSize=30.4;horizontalStack=0;resizeParent=1;resizeParentMax=0;resizeLast=0;collapsible=0;marginBottom=0;fillColor=#e1d5e7;strokeColor=#9673a6;fontSize=18;" parent="WIyWlLk6GJQsqaUBKTNV-1" vertex="1">
                    <mxGeometry x="1308" y="3277" width="319" height="308.4" as="geometry"/>
                </mxCell>
                <mxCell id="8h195-x0wi-ZMAP4BCXr-25" value="- String id" style="text;strokeColor=none;fillColor=none;align=left;verticalAlign=top;spacingLeft=4;spacingRight=4;overflow=hidden;rotatable=0;points=[[0,0.5],[1,0.5]];portConstraint=eastwest;fontSize=18;" parent="8h195-x0wi-ZMAP4BCXr-24" vertex="1">
                    <mxGeometry y="30.4" width="319" height="30" as="geometry"/>
                </mxCell>
                <mxCell id="8h195-x0wi-ZMAP4BCXr-26" value="- String password" style="text;strokeColor=none;fillColor=none;align=left;verticalAlign=top;spacingLeft=4;spacingRight=4;overflow=hidden;rotatable=0;points=[[0,0.5],[1,0.5]];portConstraint=eastwest;fontSize=18;" parent="8h195-x0wi-ZMAP4BCXr-24" vertex="1">
                    <mxGeometry y="60.4" width="319" height="30" as="geometry"/>
                </mxCell>
                <mxCell id="8h195-x0wi-ZMAP4BCXr-27" value="- LinkedList&lt;Budget&gt; budgets" style="text;strokeColor=none;fillColor=none;align=left;verticalAlign=top;spacingLeft=4;spacingRight=4;overflow=hidden;rotatable=0;points=[[0,0.5],[1,0.5]];portConstraint=eastwest;fontSize=18;" parent="8h195-x0wi-ZMAP4BCXr-24" vertex="1">
                    <mxGeometry y="90.4" width="319" height="30" as="geometry"/>
                </mxCell>
                <mxCell id="8h195-x0wi-ZMAP4BCXr-28" style="line;strokeWidth=1;fillColor=none;align=left;verticalAlign=middle;spacingTop=-1;spacingLeft=3;spacingRight=3;rotatable=0;labelPosition=right;points=[];portConstraint=eastwest;strokeColor=inherit;fontSize=18;" parent="8h195-x0wi-ZMAP4BCXr-24" vertex="1">
                    <mxGeometry y="120.4" width="319" height="8" as="geometry"/>
                </mxCell>
                <mxCell id="8h195-x0wi-ZMAP4BCXr-29" value="+ User(String, String)" style="text;strokeColor=none;fillColor=none;align=left;verticalAlign=top;spacingLeft=4;spacingRight=4;overflow=hidden;rotatable=0;points=[[0,0.5],[1,0.5]];portConstraint=eastwest;fontSize=18;" parent="8h195-x0wi-ZMAP4BCXr-24" vertex="1">
                    <mxGeometry y="128.4" width="319" height="30" as="geometry"/>
                </mxCell>
                <mxCell id="8h195-x0wi-ZMAP4BCXr-30" value="+ getId() : String" style="text;strokeColor=none;fillColor=none;align=left;verticalAlign=top;spacingLeft=4;spacingRight=4;overflow=hidden;rotatable=0;points=[[0,0.5],[1,0.5]];portConstraint=eastwest;fontSize=18;" parent="8h195-x0wi-ZMAP4BCXr-24" vertex="1">
                    <mxGeometry y="158.4" width="319" height="30" as="geometry"/>
                </mxCell>
                <mxCell id="8h195-x0wi-ZMAP4BCXr-31" value="+ getPassword() : String" style="text;strokeColor=none;fillColor=none;align=left;verticalAlign=top;spacingLeft=4;spacingRight=4;overflow=hidden;rotatable=0;points=[[0,0.5],[1,0.5]];portConstraint=eastwest;fontSize=18;" parent="8h195-x0wi-ZMAP4BCXr-24" vertex="1">
                    <mxGeometry y="188.4" width="319" height="30" as="geometry"/>
                </mxCell>
                <mxCell id="8h195-x0wi-ZMAP4BCXr-32" value="+ setPassword(String) : void" style="text;strokeColor=none;fillColor=none;align=left;verticalAlign=top;spacingLeft=4;spacingRight=4;overflow=hidden;rotatable=0;points=[[0,0.5],[1,0.5]];portConstraint=eastwest;fontSize=18;" parent="8h195-x0wi-ZMAP4BCXr-24" vertex="1">
                    <mxGeometry y="218.4" width="319" height="30" as="geometry"/>
                </mxCell>
                <mxCell id="8h195-x0wi-ZMAP4BCXr-33" value="+ checkPw(String) : boolean" style="text;strokeColor=none;fillColor=none;align=left;verticalAlign=top;spacingLeft=4;spacingRight=4;overflow=hidden;rotatable=0;points=[[0,0.5],[1,0.5]];portConstraint=eastwest;fontSize=18;" parent="8h195-x0wi-ZMAP4BCXr-24" vertex="1">
                    <mxGeometry y="248.4" width="319" height="30" as="geometry"/>
                </mxCell>
                <mxCell id="8h195-x0wi-ZMAP4BCXr-34" value="+ getBudgetList() : LinkedList&lt;Budget&gt;" style="text;strokeColor=none;fillColor=none;align=left;verticalAlign=top;spacingLeft=4;spacingRight=4;overflow=hidden;rotatable=0;points=[[0,0.5],[1,0.5]];portConstraint=eastwest;fontSize=18;" parent="8h195-x0wi-ZMAP4BCXr-24" vertex="1">
                    <mxGeometry y="278.4" width="319" height="30" as="geometry"/>
                </mxCell>
                <mxCell id="8h195-x0wi-ZMAP4BCXr-35" value="Budget" style="swimlane;fontStyle=1;align=center;verticalAlign=top;childLayout=stackLayout;horizontal=1;startSize=29.333333333333332;horizontalStack=0;resizeParent=1;resizeParentMax=0;resizeLast=0;collapsible=0;marginBottom=0;fillColor=#e1d5e7;strokeColor=#9673a6;fontSize=18;" parent="WIyWlLk6GJQsqaUBKTNV-1" vertex="1">
                    <mxGeometry x="1934" y="3661" width="326" height="356.3333333333333" as="geometry"/>
                </mxCell>
                <mxCell id="8h195-x0wi-ZMAP4BCXr-36" value="- String name" style="text;strokeColor=none;fillColor=none;align=left;verticalAlign=top;spacingLeft=4;spacingRight=4;overflow=hidden;rotatable=0;points=[[0,0.5],[1,0.5]];portConstraint=eastwest;fontSize=18;" parent="8h195-x0wi-ZMAP4BCXr-35" vertex="1">
                    <mxGeometry y="29.333333333333332" width="326" height="29" as="geometry"/>
                </mxCell>
                <mxCell id="8h195-x0wi-ZMAP4BCXr-37" value="- double limit" style="text;strokeColor=none;fillColor=none;align=left;verticalAlign=top;spacingLeft=4;spacingRight=4;overflow=hidden;rotatable=0;points=[[0,0.5],[1,0.5]];portConstraint=eastwest;fontSize=18;" parent="8h195-x0wi-ZMAP4BCXr-35" vertex="1">
                    <mxGeometry y="58.33333333333333" width="326" height="29" as="geometry"/>
                </mxCell>
                <mxCell id="8h195-x0wi-ZMAP4BCXr-38" value="- LinkedList&lt;Expense&gt; expenses" style="text;strokeColor=none;fillColor=none;align=left;verticalAlign=top;spacingLeft=4;spacingRight=4;overflow=hidden;rotatable=0;points=[[0,0.5],[1,0.5]];portConstraint=eastwest;fontSize=18;" parent="8h195-x0wi-ZMAP4BCXr-35" vertex="1">
                    <mxGeometry y="87.33333333333333" width="326" height="29" as="geometry"/>
                </mxCell>
                <mxCell id="8h195-x0wi-ZMAP4BCXr-39" style="line;strokeWidth=1;fillColor=none;align=left;verticalAlign=middle;spacingTop=-1;spacingLeft=3;spacingRight=3;rotatable=0;labelPosition=right;points=[];portConstraint=eastwest;strokeColor=inherit;fontSize=18;" parent="8h195-x0wi-ZMAP4BCXr-35" vertex="1">
                    <mxGeometry y="116.33333333333333" width="326" height="8" as="geometry"/>
                </mxCell>
                <mxCell id="8h195-x0wi-ZMAP4BCXr-40" value="+ Budget(String, double)" style="text;strokeColor=none;fillColor=none;align=left;verticalAlign=top;spacingLeft=4;spacingRight=4;overflow=hidden;rotatable=0;points=[[0,0.5],[1,0.5]];portConstraint=eastwest;fontSize=18;" parent="8h195-x0wi-ZMAP4BCXr-35" vertex="1">
                    <mxGeometry y="124.33333333333333" width="326" height="29" as="geometry"/>
                </mxCell>
                <mxCell id="8h195-x0wi-ZMAP4BCXr-41" value="+ getName() : String" style="text;strokeColor=none;fillColor=none;align=left;verticalAlign=top;spacingLeft=4;spacingRight=4;overflow=hidden;rotatable=0;points=[[0,0.5],[1,0.5]];portConstraint=eastwest;fontSize=18;" parent="8h195-x0wi-ZMAP4BCXr-35" vertex="1">
                    <mxGeometry y="153.33333333333331" width="326" height="29" as="geometry"/>
                </mxCell>
                <mxCell id="8h195-x0wi-ZMAP4BCXr-42" value="+ setName(String) : void" style="text;strokeColor=none;fillColor=none;align=left;verticalAlign=top;spacingLeft=4;spacingRight=4;overflow=hidden;rotatable=0;points=[[0,0.5],[1,0.5]];portConstraint=eastwest;fontSize=18;" parent="8h195-x0wi-ZMAP4BCXr-35" vertex="1">
                    <mxGeometry y="182.33333333333331" width="326" height="29" as="geometry"/>
                </mxCell>
                <mxCell id="8h195-x0wi-ZMAP4BCXr-43" value="+ getLimit() : double" style="text;strokeColor=none;fillColor=none;align=left;verticalAlign=top;spacingLeft=4;spacingRight=4;overflow=hidden;rotatable=0;points=[[0,0.5],[1,0.5]];portConstraint=eastwest;fontSize=18;" parent="8h195-x0wi-ZMAP4BCXr-35" vertex="1">
                    <mxGeometry y="211.33333333333331" width="326" height="29" as="geometry"/>
                </mxCell>
                <mxCell id="8h195-x0wi-ZMAP4BCXr-44" value="+ setLimit(double) : void" style="text;strokeColor=none;fillColor=none;align=left;verticalAlign=top;spacingLeft=4;spacingRight=4;overflow=hidden;rotatable=0;points=[[0,0.5],[1,0.5]];portConstraint=eastwest;fontSize=18;" parent="8h195-x0wi-ZMAP4BCXr-35" vertex="1">
                    <mxGeometry y="240.33333333333331" width="326" height="29" as="geometry"/>
                </mxCell>
                <mxCell id="8h195-x0wi-ZMAP4BCXr-45" value="+ addExpense(Expense) : void" style="text;strokeColor=none;fillColor=none;align=left;verticalAlign=top;spacingLeft=4;spacingRight=4;overflow=hidden;rotatable=0;points=[[0,0.5],[1,0.5]];portConstraint=eastwest;fontSize=18;" parent="8h195-x0wi-ZMAP4BCXr-35" vertex="1">
                    <mxGeometry y="269.3333333333333" width="326" height="29" as="geometry"/>
                </mxCell>
                <mxCell id="8h195-x0wi-ZMAP4BCXr-46" value="+ getSpent() : double" style="text;strokeColor=none;fillColor=none;align=left;verticalAlign=top;spacingLeft=4;spacingRight=4;overflow=hidden;rotatable=0;points=[[0,0.5],[1,0.5]];portConstraint=eastwest;fontSize=18;" parent="8h195-x0wi-ZMAP4BCXr-35" vertex="1">
                    <mxGeometry y="298.3333333333333" width="326" height="29" as="geometry"/>
                </mxCell>
                <mxCell id="8h195-x0wi-ZMAP4BCXr-47" value="+ getExpenses() : LinkedList&lt;Expense&gt;" style="text;strokeColor=none;fillColor=none;align=left;verticalAlign=top;spacingLeft=4;spacingRight=4;overflow=hidden;rotatable=0;points=[[0,0.5],[1,0.5]];portConstraint=eastwest;fontSize=18;" parent="8h195-x0wi-ZMAP4BCXr-35" vertex="1">
                    <mxGeometry y="327.3333333333333" width="326" height="29" as="geometry"/>
                </mxCell>
                <mxCell id="8h195-x0wi-ZMAP4BCXr-48" value="Expense" style="swimlane;fontStyle=1;align=center;verticalAlign=top;childLayout=stackLayout;horizontal=1;startSize=32;horizontalStack=0;resizeParent=1;resizeParentMax=0;resizeLast=0;collapsible=0;marginBottom=0;fillColor=#e1d5e7;strokeColor=#9673a6;fontSize=18;" parent="WIyWlLk6GJQsqaUBKTNV-1" vertex="1">
                    <mxGeometry x="2009" y="4094" width="251" height="264" as="geometry"/>
                </mxCell>
                <mxCell id="8h195-x0wi-ZMAP4BCXr-49" value="- String desc" style="text;strokeColor=none;fillColor=none;align=left;verticalAlign=top;spacingLeft=4;spacingRight=4;overflow=hidden;rotatable=0;points=[[0,0.5],[1,0.5]];portConstraint=eastwest;fontSize=18;" parent="8h195-x0wi-ZMAP4BCXr-48" vertex="1">
                    <mxGeometry y="32" width="251" height="32" as="geometry"/>
                </mxCell>
                <mxCell id="8h195-x0wi-ZMAP4BCXr-50" value="- double amount" style="text;strokeColor=none;fillColor=none;align=left;verticalAlign=top;spacingLeft=4;spacingRight=4;overflow=hidden;rotatable=0;points=[[0,0.5],[1,0.5]];portConstraint=eastwest;fontSize=18;" parent="8h195-x0wi-ZMAP4BCXr-48" vertex="1">
                    <mxGeometry y="64" width="251" height="32" as="geometry"/>
                </mxCell>
                <mxCell id="8h195-x0wi-ZMAP4BCXr-51" style="line;strokeWidth=1;fillColor=none;align=left;verticalAlign=middle;spacingTop=-1;spacingLeft=3;spacingRight=3;rotatable=0;labelPosition=right;points=[];portConstraint=eastwest;strokeColor=inherit;fontSize=18;" parent="8h195-x0wi-ZMAP4BCXr-48" vertex="1">
                    <mxGeometry y="96" width="251" height="8" as="geometry"/>
                </mxCell>
                <mxCell id="8h195-x0wi-ZMAP4BCXr-52" value="+ Expense(String, double)" style="text;strokeColor=none;fillColor=none;align=left;verticalAlign=top;spacingLeft=4;spacingRight=4;overflow=hidden;rotatable=0;points=[[0,0.5],[1,0.5]];portConstraint=eastwest;fontSize=18;" parent="8h195-x0wi-ZMAP4BCXr-48" vertex="1">
                    <mxGeometry y="104" width="251" height="32" as="geometry"/>
                </mxCell>
                <mxCell id="8h195-x0wi-ZMAP4BCXr-53" value="+ getDesc() : String" style="text;strokeColor=none;fillColor=none;align=left;verticalAlign=top;spacingLeft=4;spacingRight=4;overflow=hidden;rotatable=0;points=[[0,0.5],[1,0.5]];portConstraint=eastwest;fontSize=18;" parent="8h195-x0wi-ZMAP4BCXr-48" vertex="1">
                    <mxGeometry y="136" width="251" height="32" as="geometry"/>
                </mxCell>
                <mxCell id="8h195-x0wi-ZMAP4BCXr-54" value="+ setDesc(String) : void" style="text;strokeColor=none;fillColor=none;align=left;verticalAlign=top;spacingLeft=4;spacingRight=4;overflow=hidden;rotatable=0;points=[[0,0.5],[1,0.5]];portConstraint=eastwest;fontSize=18;" parent="8h195-x0wi-ZMAP4BCXr-48" vertex="1">
                    <mxGeometry y="168" width="251" height="32" as="geometry"/>
                </mxCell>
                <mxCell id="8h195-x0wi-ZMAP4BCXr-55" value="+ getAmount() : double" style="text;strokeColor=none;fillColor=none;align=left;verticalAlign=top;spacingLeft=4;spacingRight=4;overflow=hidden;rotatable=0;points=[[0,0.5],[1,0.5]];portConstraint=eastwest;fontSize=18;" parent="8h195-x0wi-ZMAP4BCXr-48" vertex="1">
                    <mxGeometry y="200" width="251" height="32" as="geometry"/>
                </mxCell>
                <mxCell id="8h195-x0wi-ZMAP4BCXr-56" value="+ setAmount(double) : void" style="text;strokeColor=none;fillColor=none;align=left;verticalAlign=top;spacingLeft=4;spacingRight=4;overflow=hidden;rotatable=0;points=[[0,0.5],[1,0.5]];portConstraint=eastwest;fontSize=18;" parent="8h195-x0wi-ZMAP4BCXr-48" vertex="1">
                    <mxGeometry y="232" width="251" height="32" as="geometry"/>
                </mxCell>
                <mxCell id="8h195-x0wi-ZMAP4BCXr-57" value="DataStore" style="swimlane;fontStyle=1;align=center;verticalAlign=top;childLayout=stackLayout;horizontal=1;startSize=29.818181818181817;horizontalStack=0;resizeParent=1;resizeParentMax=0;resizeLast=0;collapsible=0;marginBottom=0;fillColor=#ffe6cc;strokeColor=#d79b00;fontSize=18;" parent="WIyWlLk6GJQsqaUBKTNV-1" vertex="1">
                    <mxGeometry x="180" y="3673" width="349" height="337.8181818181818" as="geometry"/>
                </mxCell>
                <mxCell id="8h195-x0wi-ZMAP4BCXr-58" value="- String DATA_FILE" style="text;strokeColor=none;fillColor=none;align=left;verticalAlign=top;spacingLeft=4;spacingRight=4;overflow=hidden;rotatable=0;points=[[0,0.5],[1,0.5]];portConstraint=eastwest;fontSize=18;" parent="8h195-x0wi-ZMAP4BCXr-57" vertex="1">
                    <mxGeometry y="29.818181818181817" width="349" height="30" as="geometry"/>
                </mxCell>
                <mxCell id="8h195-x0wi-ZMAP4BCXr-59" value="- LinkedList&lt;User&gt; users" style="text;strokeColor=none;fillColor=none;align=left;verticalAlign=top;spacingLeft=4;spacingRight=4;overflow=hidden;rotatable=0;points=[[0,0.5],[1,0.5]];portConstraint=eastwest;fontSize=18;" parent="8h195-x0wi-ZMAP4BCXr-57" vertex="1">
                    <mxGeometry y="59.81818181818181" width="349" height="30" as="geometry"/>
                </mxCell>
                <mxCell id="8h195-x0wi-ZMAP4BCXr-60" style="line;strokeWidth=1;fillColor=none;align=left;verticalAlign=middle;spacingTop=-1;spacingLeft=3;spacingRight=3;rotatable=0;labelPosition=right;points=[];portConstraint=eastwest;strokeColor=inherit;fontSize=18;" parent="8h195-x0wi-ZMAP4BCXr-57" vertex="1">
                    <mxGeometry y="89.81818181818181" width="349" height="8" as="geometry"/>
                </mxCell>
                <mxCell id="8h195-x0wi-ZMAP4BCXr-61" value="+ DataStore()" style="text;strokeColor=none;fillColor=none;align=left;verticalAlign=top;spacingLeft=4;spacingRight=4;overflow=hidden;rotatable=0;points=[[0,0.5],[1,0.5]];portConstraint=eastwest;fontSize=18;" parent="8h195-x0wi-ZMAP4BCXr-57" vertex="1">
                    <mxGeometry y="97.81818181818181" width="349" height="30" as="geometry"/>
                </mxCell>
                <mxCell id="8h195-x0wi-ZMAP4BCXr-62" value="+ register(User) : boolean" style="text;strokeColor=none;fillColor=none;align=left;verticalAlign=top;spacingLeft=4;spacingRight=4;overflow=hidden;rotatable=0;points=[[0,0.5],[1,0.5]];portConstraint=eastwest;fontSize=18;" parent="8h195-x0wi-ZMAP4BCXr-57" vertex="1">
                    <mxGeometry y="127.81818181818181" width="349" height="30" as="geometry"/>
                </mxCell>
                <mxCell id="8h195-x0wi-ZMAP4BCXr-63" value="+ authenticate(String, String) : User" style="text;strokeColor=none;fillColor=none;align=left;verticalAlign=top;spacingLeft=4;spacingRight=4;overflow=hidden;rotatable=0;points=[[0,0.5],[1,0.5]];portConstraint=eastwest;fontSize=18;" parent="8h195-x0wi-ZMAP4BCXr-57" vertex="1">
                    <mxGeometry y="157.8181818181818" width="349" height="30" as="geometry"/>
                </mxCell>
                <mxCell id="8h195-x0wi-ZMAP4BCXr-64" value="+ deleteUser(User) : boolean" style="text;strokeColor=none;fillColor=none;align=left;verticalAlign=top;spacingLeft=4;spacingRight=4;overflow=hidden;rotatable=0;points=[[0,0.5],[1,0.5]];portConstraint=eastwest;fontSize=18;" parent="8h195-x0wi-ZMAP4BCXr-57" vertex="1">
                    <mxGeometry y="187.8181818181818" width="349" height="30" as="geometry"/>
                </mxCell>
                <mxCell id="8h195-x0wi-ZMAP4BCXr-65" value="+ save() : void" style="text;strokeColor=none;fillColor=none;align=left;verticalAlign=top;spacingLeft=4;spacingRight=4;overflow=hidden;rotatable=0;points=[[0,0.5],[1,0.5]];portConstraint=eastwest;fontSize=18;" parent="8h195-x0wi-ZMAP4BCXr-57" vertex="1">
                    <mxGeometry y="217.8181818181818" width="349" height="30" as="geometry"/>
                </mxCell>
                <mxCell id="8h195-x0wi-ZMAP4BCXr-66" value="- load() : void" style="text;strokeColor=none;fillColor=none;align=left;verticalAlign=top;spacingLeft=4;spacingRight=4;overflow=hidden;rotatable=0;points=[[0,0.5],[1,0.5]];portConstraint=eastwest;fontSize=18;" parent="8h195-x0wi-ZMAP4BCXr-57" vertex="1">
                    <mxGeometry y="247.8181818181818" width="349" height="30" as="geometry"/>
                </mxCell>
                <mxCell id="8h195-x0wi-ZMAP4BCXr-67" value="- escape(String) : String" style="text;strokeColor=none;fillColor=none;align=left;verticalAlign=top;spacingLeft=4;spacingRight=4;overflow=hidden;rotatable=0;points=[[0,0.5],[1,0.5]];portConstraint=eastwest;fontSize=18;" parent="8h195-x0wi-ZMAP4BCXr-57" vertex="1">
                    <mxGeometry y="277.8181818181818" width="349" height="30" as="geometry"/>
                </mxCell>
                <mxCell id="8h195-x0wi-ZMAP4BCXr-68" value="- between(String, String, String) : String" style="text;strokeColor=none;fillColor=none;align=left;verticalAlign=top;spacingLeft=4;spacingRight=4;overflow=hidden;rotatable=0;points=[[0,0.5],[1,0.5]];portConstraint=eastwest;fontSize=18;" parent="8h195-x0wi-ZMAP4BCXr-57" vertex="1">
                    <mxGeometry y="307.8181818181818" width="349" height="30" as="geometry"/>
                </mxCell>
                <mxCell id="8h195-x0wi-ZMAP4BCXr-69" value="LinkedList&lt;T&gt;" style="swimlane;fontStyle=1;align=center;verticalAlign=top;childLayout=stackLayout;horizontal=1;startSize=31.11111111111111;horizontalStack=0;resizeParent=1;resizeParentMax=0;resizeLast=0;collapsible=0;marginBottom=0;fillColor=#d5e8d4;strokeColor=#82b366;fontSize=18;" parent="WIyWlLk6GJQsqaUBKTNV-1" vertex="1">
                    <mxGeometry x="420" y="4094" width="335" height="287.1111111111111" as="geometry"/>
                </mxCell>
                <mxCell id="8h195-x0wi-ZMAP4BCXr-70" value="- Node head" style="text;strokeColor=none;fillColor=none;align=left;verticalAlign=top;spacingLeft=4;spacingRight=4;overflow=hidden;rotatable=0;points=[[0,0.5],[1,0.5]];portConstraint=eastwest;fontSize=18;" parent="8h195-x0wi-ZMAP4BCXr-69" vertex="1">
                    <mxGeometry y="31.11111111111111" width="335" height="31" as="geometry"/>
                </mxCell>
                <mxCell id="8h195-x0wi-ZMAP4BCXr-71" value="- int size" style="text;strokeColor=none;fillColor=none;align=left;verticalAlign=top;spacingLeft=4;spacingRight=4;overflow=hidden;rotatable=0;points=[[0,0.5],[1,0.5]];portConstraint=eastwest;fontSize=18;" parent="8h195-x0wi-ZMAP4BCXr-69" vertex="1">
                    <mxGeometry y="62.111111111111114" width="335" height="31" as="geometry"/>
                </mxCell>
                <mxCell id="8h195-x0wi-ZMAP4BCXr-72" style="line;strokeWidth=1;fillColor=none;align=left;verticalAlign=middle;spacingTop=-1;spacingLeft=3;spacingRight=3;rotatable=0;labelPosition=right;points=[];portConstraint=eastwest;strokeColor=inherit;fontSize=18;" parent="8h195-x0wi-ZMAP4BCXr-69" vertex="1">
                    <mxGeometry y="93.11111111111111" width="335" height="8" as="geometry"/>
                </mxCell>
                <mxCell id="8h195-x0wi-ZMAP4BCXr-73" value="+ add(T) : void" style="text;strokeColor=none;fillColor=none;align=left;verticalAlign=top;spacingLeft=4;spacingRight=4;overflow=hidden;rotatable=0;points=[[0,0.5],[1,0.5]];portConstraint=eastwest;fontSize=18;" parent="8h195-x0wi-ZMAP4BCXr-69" vertex="1">
                    <mxGeometry y="101.11111111111111" width="335" height="31" as="geometry"/>
                </mxCell>
                <mxCell id="8h195-x0wi-ZMAP4BCXr-74" value="+ remove(T) : void" style="text;strokeColor=none;fillColor=none;align=left;verticalAlign=top;spacingLeft=4;spacingRight=4;overflow=hidden;rotatable=0;points=[[0,0.5],[1,0.5]];portConstraint=eastwest;fontSize=18;" parent="8h195-x0wi-ZMAP4BCXr-69" vertex="1">
                    <mxGeometry y="132.11111111111111" width="335" height="31" as="geometry"/>
                </mxCell>
                <mxCell id="8h195-x0wi-ZMAP4BCXr-75" value="+ size() : int" style="text;strokeColor=none;fillColor=none;align=left;verticalAlign=top;spacingLeft=4;spacingRight=4;overflow=hidden;rotatable=0;points=[[0,0.5],[1,0.5]];portConstraint=eastwest;fontSize=18;" parent="8h195-x0wi-ZMAP4BCXr-69" vertex="1">
                    <mxGeometry y="163.11111111111111" width="335" height="31" as="geometry"/>
                </mxCell>
                <mxCell id="8h195-x0wi-ZMAP4BCXr-76" value="+ getAt(int) : T" style="text;strokeColor=none;fillColor=none;align=left;verticalAlign=top;spacingLeft=4;spacingRight=4;overflow=hidden;rotatable=0;points=[[0,0.5],[1,0.5]];portConstraint=eastwest;fontSize=18;" parent="8h195-x0wi-ZMAP4BCXr-69" vertex="1">
                    <mxGeometry y="194.11111111111111" width="335" height="31" as="geometry"/>
                </mxCell>
                <mxCell id="8h195-x0wi-ZMAP4BCXr-77" value="+ iterator() : Iterator&lt;T&gt;" style="text;strokeColor=none;fillColor=none;align=left;verticalAlign=top;spacingLeft=4;spacingRight=4;overflow=hidden;rotatable=0;points=[[0,0.5],[1,0.5]];portConstraint=eastwest;fontSize=18;" parent="8h195-x0wi-ZMAP4BCXr-69" vertex="1">
                    <mxGeometry y="225.11111111111111" width="335" height="31" as="geometry"/>
                </mxCell>
                <mxCell id="8h195-x0wi-ZMAP4BCXr-78" value="+ sum(Function&lt;T,Double&gt;) : double" style="text;strokeColor=none;fillColor=none;align=left;verticalAlign=top;spacingLeft=4;spacingRight=4;overflow=hidden;rotatable=0;points=[[0,0.5],[1,0.5]];portConstraint=eastwest;fontSize=18;" parent="8h195-x0wi-ZMAP4BCXr-69" vertex="1">
                    <mxGeometry y="256.1111111111111" width="335" height="31" as="geometry"/>
                </mxCell>
                <mxCell id="8h195-x0wi-ZMAP4BCXr-79" value="BinarySearchTree" style="swimlane;fontStyle=1;align=center;verticalAlign=top;childLayout=stackLayout;horizontal=1;startSize=34.666666666666664;horizontalStack=0;resizeParent=1;resizeParentMax=0;resizeLast=0;collapsible=0;marginBottom=0;fillColor=#d5e8d4;strokeColor=#82b366;fontSize=18;" parent="WIyWlLk6GJQsqaUBKTNV-1" vertex="1">
                    <mxGeometry x="1678" y="3325" width="402" height="217.66666666666666" as="geometry"/>
                </mxCell>
                <mxCell id="8h195-x0wi-ZMAP4BCXr-80" value="- Node root" style="text;strokeColor=none;fillColor=none;align=left;verticalAlign=top;spacingLeft=4;spacingRight=4;overflow=hidden;rotatable=0;points=[[0,0.5],[1,0.5]];portConstraint=eastwest;fontSize=18;" parent="8h195-x0wi-ZMAP4BCXr-79" vertex="1">
                    <mxGeometry y="34.666666666666664" width="402" height="35" as="geometry"/>
                </mxCell>
                <mxCell id="8h195-x0wi-ZMAP4BCXr-81" style="line;strokeWidth=1;fillColor=none;align=left;verticalAlign=middle;spacingTop=-1;spacingLeft=3;spacingRight=3;rotatable=0;labelPosition=right;points=[];portConstraint=eastwest;strokeColor=inherit;fontSize=18;" parent="8h195-x0wi-ZMAP4BCXr-79" vertex="1">
                    <mxGeometry y="69.66666666666666" width="402" height="8" as="geometry"/>
                </mxCell>
                <mxCell id="8h195-x0wi-ZMAP4BCXr-82" value="+ insert(Comparable) : void" style="text;strokeColor=none;fillColor=none;align=left;verticalAlign=top;spacingLeft=4;spacingRight=4;overflow=hidden;rotatable=0;points=[[0,0.5],[1,0.5]];portConstraint=eastwest;fontSize=18;" parent="8h195-x0wi-ZMAP4BCXr-79" vertex="1">
                    <mxGeometry y="77.66666666666666" width="402" height="35" as="geometry"/>
                </mxCell>
                <mxCell id="8h195-x0wi-ZMAP4BCXr-83" value="- insertRec(Node, Comparable) : Node" style="text;strokeColor=none;fillColor=none;align=left;verticalAlign=top;spacingLeft=4;spacingRight=4;overflow=hidden;rotatable=0;points=[[0,0.5],[1,0.5]];portConstraint=eastwest;fontSize=18;" parent="8h195-x0wi-ZMAP4BCXr-79" vertex="1">
                    <mxGeometry y="112.66666666666666" width="402" height="35" as="geometry"/>
                </mxCell>
                <mxCell id="8h195-x0wi-ZMAP4BCXr-84" value="+ contains(Comparable) : boolean" style="text;strokeColor=none;fillColor=none;align=left;verticalAlign=top;spacingLeft=4;spacingRight=4;overflow=hidden;rotatable=0;points=[[0,0.5],[1,0.5]];portConstraint=eastwest;fontSize=18;" parent="8h195-x0wi-ZMAP4BCXr-79" vertex="1">
                    <mxGeometry y="147.66666666666666" width="402" height="35" as="geometry"/>
                </mxCell>
                <mxCell id="8h195-x0wi-ZMAP4BCXr-85" value="- containsRec(Node, Comparable) : boolean" style="text;strokeColor=none;fillColor=none;align=left;verticalAlign=top;spacingLeft=4;spacingRight=4;overflow=hidden;rotatable=0;points=[[0,0.5],[1,0.5]];portConstraint=eastwest;fontSize=18;" parent="8h195-x0wi-ZMAP4BCXr-79" vertex="1">
                    <mxGeometry y="182.66666666666666" width="402" height="35" as="geometry"/>
                </mxCell>
                <mxCell id="8h195-x0wi-ZMAP4BCXr-86" value="Stack" style="swimlane;fontStyle=1;align=center;verticalAlign=top;childLayout=stackLayout;horizontal=1;startSize=34.666666666666664;horizontalStack=0;resizeParent=1;resizeParentMax=0;resizeLast=0;collapsible=0;marginBottom=0;fillColor=#d5e8d4;strokeColor=#82b366;fontSize=18;" parent="WIyWlLk6GJQsqaUBKTNV-1" vertex="1">
                    <mxGeometry x="783" y="3325" width="197" height="217.66666666666666" as="geometry"/>
                </mxCell>
                <mxCell id="8h195-x0wi-ZMAP4BCXr-87" value="- Node top" style="text;strokeColor=none;fillColor=none;align=left;verticalAlign=top;spacingLeft=4;spacingRight=4;overflow=hidden;rotatable=0;points=[[0,0.5],[1,0.5]];portConstraint=eastwest;fontSize=18;" parent="8h195-x0wi-ZMAP4BCXr-86" vertex="1">
                    <mxGeometry y="34.666666666666664" width="197" height="35" as="geometry"/>
                </mxCell>
                <mxCell id="8h195-x0wi-ZMAP4BCXr-88" style="line;strokeWidth=1;fillColor=none;align=left;verticalAlign=middle;spacingTop=-1;spacingLeft=3;spacingRight=3;rotatable=0;labelPosition=right;points=[];portConstraint=eastwest;strokeColor=inherit;fontSize=18;" parent="8h195-x0wi-ZMAP4BCXr-86" vertex="1">
                    <mxGeometry y="69.66666666666666" width="197" height="8" as="geometry"/>
                </mxCell>
                <mxCell id="8h195-x0wi-ZMAP4BCXr-89" value="+ push(Object) : void" style="text;strokeColor=none;fillColor=none;align=left;verticalAlign=top;spacingLeft=4;spacingRight=4;overflow=hidden;rotatable=0;points=[[0,0.5],[1,0.5]];portConstraint=eastwest;fontSize=18;" parent="8h195-x0wi-ZMAP4BCXr-86" vertex="1">
                    <mxGeometry y="77.66666666666666" width="197" height="35" as="geometry"/>
                </mxCell>
                <mxCell id="8h195-x0wi-ZMAP4BCXr-90" value="+ pop() : Object" style="text;strokeColor=none;fillColor=none;align=left;verticalAlign=top;spacingLeft=4;spacingRight=4;overflow=hidden;rotatable=0;points=[[0,0.5],[1,0.5]];portConstraint=eastwest;fontSize=18;" parent="8h195-x0wi-ZMAP4BCXr-86" vertex="1">
                    <mxGeometry y="112.66666666666666" width="197" height="35" as="geometry"/>
                </mxCell>
                <mxCell id="8h195-x0wi-ZMAP4BCXr-91" value="+ peek() : Object" style="text;strokeColor=none;fillColor=none;align=left;verticalAlign=top;spacingLeft=4;spacingRight=4;overflow=hidden;rotatable=0;points=[[0,0.5],[1,0.5]];portConstraint=eastwest;fontSize=18;" parent="8h195-x0wi-ZMAP4BCXr-86" vertex="1">
                    <mxGeometry y="147.66666666666666" width="197" height="35" as="geometry"/>
                </mxCell>
                <mxCell id="8h195-x0wi-ZMAP4BCXr-92" value="+ isEmpty() : boolean" style="text;strokeColor=none;fillColor=none;align=left;verticalAlign=top;spacingLeft=4;spacingRight=4;overflow=hidden;rotatable=0;points=[[0,0.5],[1,0.5]];portConstraint=eastwest;fontSize=18;" parent="8h195-x0wi-ZMAP4BCXr-86" vertex="1">
                    <mxGeometry y="182.66666666666666" width="197" height="35" as="geometry"/>
                </mxCell>
                <mxCell id="8h195-x0wi-ZMAP4BCXr-93" value="Queue" style="swimlane;fontStyle=1;align=center;verticalAlign=top;childLayout=stackLayout;horizontal=1;startSize=33.142857142857146;horizontalStack=0;resizeParent=1;resizeParentMax=0;resizeLast=0;collapsible=0;marginBottom=0;fillColor=#d5e8d4;strokeColor=#82b366;fontSize=18;" parent="WIyWlLk6GJQsqaUBKTNV-1" vertex="1">
                    <mxGeometry x="1030" y="3313" width="229" height="239.14285714285714" as="geometry"/>
                </mxCell>
                <mxCell id="8h195-x0wi-ZMAP4BCXr-94" value="- Node head" style="text;strokeColor=none;fillColor=none;align=left;verticalAlign=top;spacingLeft=4;spacingRight=4;overflow=hidden;rotatable=0;points=[[0,0.5],[1,0.5]];portConstraint=eastwest;fontSize=18;" parent="8h195-x0wi-ZMAP4BCXr-93" vertex="1">
                    <mxGeometry y="33.142857142857146" width="229" height="33" as="geometry"/>
                </mxCell>
                <mxCell id="8h195-x0wi-ZMAP4BCXr-95" value="- Node tail" style="text;strokeColor=none;fillColor=none;align=left;verticalAlign=top;spacingLeft=4;spacingRight=4;overflow=hidden;rotatable=0;points=[[0,0.5],[1,0.5]];portConstraint=eastwest;fontSize=18;" parent="8h195-x0wi-ZMAP4BCXr-93" vertex="1">
                    <mxGeometry y="66.14285714285714" width="229" height="33" as="geometry"/>
                </mxCell>
                <mxCell id="8h195-x0wi-ZMAP4BCXr-96" style="line;strokeWidth=1;fillColor=none;align=left;verticalAlign=middle;spacingTop=-1;spacingLeft=3;spacingRight=3;rotatable=0;labelPosition=right;points=[];portConstraint=eastwest;strokeColor=inherit;fontSize=18;" parent="8h195-x0wi-ZMAP4BCXr-93" vertex="1">
                    <mxGeometry y="99.14285714285714" width="229" height="8" as="geometry"/>
                </mxCell>
                <mxCell id="8h195-x0wi-ZMAP4BCXr-97" value="+ enqueue(Object) : void" style="text;strokeColor=none;fillColor=none;align=left;verticalAlign=top;spacingLeft=4;spacingRight=4;overflow=hidden;rotatable=0;points=[[0,0.5],[1,0.5]];portConstraint=eastwest;fontSize=18;" parent="8h195-x0wi-ZMAP4BCXr-93" vertex="1">
                    <mxGeometry y="107.14285714285714" width="229" height="33" as="geometry"/>
                </mxCell>
                <mxCell id="8h195-x0wi-ZMAP4BCXr-98" value="+ dequeue() : Object" style="text;strokeColor=none;fillColor=none;align=left;verticalAlign=top;spacingLeft=4;spacingRight=4;overflow=hidden;rotatable=0;points=[[0,0.5],[1,0.5]];portConstraint=eastwest;fontSize=18;" parent="8h195-x0wi-ZMAP4BCXr-93" vertex="1">
                    <mxGeometry y="140.14285714285714" width="229" height="33" as="geometry"/>
                </mxCell>
                <mxCell id="8h195-x0wi-ZMAP4BCXr-99" value="+ peek() : Object" style="text;strokeColor=none;fillColor=none;align=left;verticalAlign=top;spacingLeft=4;spacingRight=4;overflow=hidden;rotatable=0;points=[[0,0.5],[1,0.5]];portConstraint=eastwest;fontSize=18;" parent="8h195-x0wi-ZMAP4BCXr-93" vertex="1">
                    <mxGeometry y="173.14285714285714" width="229" height="33" as="geometry"/>
                </mxCell>
                <mxCell id="8h195-x0wi-ZMAP4BCXr-100" value="+ isEmpty() : boolean" style="text;strokeColor=none;fillColor=none;align=left;verticalAlign=top;spacingLeft=4;spacingRight=4;overflow=hidden;rotatable=0;points=[[0,0.5],[1,0.5]];portConstraint=eastwest;fontSize=18;" parent="8h195-x0wi-ZMAP4BCXr-93" vertex="1">
                    <mxGeometry y="206.14285714285714" width="229" height="33" as="geometry"/>
                </mxCell>
                <mxCell id="8h195-x0wi-ZMAP4BCXr-101" value="ConsoleUtils" style="swimlane;fontStyle=1;align=center;verticalAlign=top;childLayout=stackLayout;horizontal=1;startSize=34.54545454545455;horizontalStack=0;resizeParent=1;resizeParentMax=0;resizeLast=0;collapsible=0;marginBottom=0;fillColor=#f8cecc;strokeColor=#b85450;fontSize=18;" parent="WIyWlLk6GJQsqaUBKTNV-1" vertex="1">
                    <mxGeometry x="407" y="3334" width="326" height="182.54545454545456" as="geometry"/>
                </mxCell>
                <mxCell id="8h195-x0wi-ZMAP4BCXr-102" style="line;strokeWidth=1;fillColor=none;align=left;verticalAlign=middle;spacingTop=-1;spacingLeft=3;spacingRight=3;rotatable=0;labelPosition=right;points=[];portConstraint=eastwest;strokeColor=inherit;fontSize=18;" parent="8h195-x0wi-ZMAP4BCXr-101" vertex="1">
                    <mxGeometry y="34.54545454545455" width="326" height="8" as="geometry"/>
                </mxCell>
                <mxCell id="8h195-x0wi-ZMAP4BCXr-103" value="+ clearScreen() : void" style="text;strokeColor=none;fillColor=none;align=left;verticalAlign=top;spacingLeft=4;spacingRight=4;overflow=hidden;rotatable=0;points=[[0,0.5],[1,0.5]];portConstraint=eastwest;fontSize=18;" parent="8h195-x0wi-ZMAP4BCXr-101" vertex="1">
                    <mxGeometry y="42.54545454545455" width="326" height="35" as="geometry"/>
                </mxCell>
                <mxCell id="8h195-x0wi-ZMAP4BCXr-104" value="+ printBox(String[]) : void" style="text;strokeColor=none;fillColor=none;align=left;verticalAlign=top;spacingLeft=4;spacingRight=4;overflow=hidden;rotatable=0;points=[[0,0.5],[1,0.5]];portConstraint=eastwest;fontSize=18;" parent="8h195-x0wi-ZMAP4BCXr-101" vertex="1">
                    <mxGeometry y="77.54545454545455" width="326" height="35" as="geometry"/>
                </mxCell>
                <mxCell id="8h195-x0wi-ZMAP4BCXr-105" value="- printLine(int) : void" style="text;strokeColor=none;fillColor=none;align=left;verticalAlign=top;spacingLeft=4;spacingRight=4;overflow=hidden;rotatable=0;points=[[0,0.5],[1,0.5]];portConstraint=eastwest;fontSize=18;" parent="8h195-x0wi-ZMAP4BCXr-101" vertex="1">
                    <mxGeometry y="112.54545454545455" width="326" height="35" as="geometry"/>
                </mxCell>
                <mxCell id="8h195-x0wi-ZMAP4BCXr-106" value="+ printGraph(double, double) : void" style="text;strokeColor=none;fillColor=none;align=left;verticalAlign=top;spacingLeft=4;spacingRight=4;overflow=hidden;rotatable=0;points=[[0,0.5],[1,0.5]];portConstraint=eastwest;fontSize=18;" parent="8h195-x0wi-ZMAP4BCXr-101" vertex="1">
                    <mxGeometry y="147.54545454545456" width="326" height="35" as="geometry"/>
                </mxCell>
                <mxCell id="8h195-x0wi-ZMAP4BCXr-107" value="uses" style="curved=0;startArrow=none;endArrow=open;endSize=12;exitX=0;exitY=0.59;entryX=0.5;entryY=0;rounded=1;fontSize=18;" parent="WIyWlLk6GJQsqaUBKTNV-1" source="8h195-x0wi-ZMAP4BCXr-0" target="8h195-x0wi-ZMAP4BCXr-57" edge="1">
                    <mxGeometry relative="1" as="geometry">
                        <Array as="points">
                            <mxPoint x="354" y="3240"/>
                        </Array>
                    </mxGeometry>
                </mxCell>
                <mxCell id="8h195-x0wi-ZMAP4BCXr-108" value="uses" style="curved=0;startArrow=none;endArrow=open;endSize=12;exitX=0;exitY=0.61;entryX=0.5;entryY=0;rounded=1;fontSize=18;" parent="WIyWlLk6GJQsqaUBKTNV-1" source="8h195-x0wi-ZMAP4BCXr-0" target="8h195-x0wi-ZMAP4BCXr-101" edge="1">
                    <mxGeometry x="-0.0036" relative="1" as="geometry">
                        <Array as="points">
                            <mxPoint x="570" y="3240"/>
                        </Array>
                        <mxPoint as="offset"/>
                    </mxGeometry>
                </mxCell>
                <mxCell id="8h195-x0wi-ZMAP4BCXr-109" value="uses" style="curved=0;startArrow=none;endArrow=open;endSize=12;exitX=0;exitY=0.69;entryX=0.5;entryY=0;rounded=1;fontSize=18;exitDx=0;exitDy=0;entryDx=0;entryDy=0;" parent="WIyWlLk6GJQsqaUBKTNV-1" source="8h195-x0wi-ZMAP4BCXr-0" target="8h195-x0wi-ZMAP4BCXr-86" edge="1">
                    <mxGeometry relative="1" as="geometry">
                        <Array as="points">
                            <mxPoint x="881" y="3240"/>
                        </Array>
                    </mxGeometry>
                </mxCell>
                <mxCell id="8h195-x0wi-ZMAP4BCXr-110" value="uses" style="curved=0;startArrow=none;endArrow=open;endSize=12;exitX=0;exitY=1;entryX=0.5;entryY=0;rounded=1;fontSize=18;" parent="WIyWlLk6GJQsqaUBKTNV-1" source="8h195-x0wi-ZMAP4BCXr-0" target="8h195-x0wi-ZMAP4BCXr-93" edge="1">
                    <mxGeometry relative="1" as="geometry">
                        <Array as="points">
                            <mxPoint x="1144" y="3240"/>
                        </Array>
                    </mxGeometry>
                </mxCell>
                <mxCell id="8h195-x0wi-ZMAP4BCXr-111" value="operates on" style="curved=0;startArrow=none;endArrow=open;endSize=12;exitX=0.99;exitY=1;entryX=0.5;entryY=0;rounded=1;fontSize=18;" parent="WIyWlLk6GJQsqaUBKTNV-1" source="8h195-x0wi-ZMAP4BCXr-0" target="8h195-x0wi-ZMAP4BCXr-24" edge="1">
                    <mxGeometry relative="1" as="geometry">
                        <Array as="points">
                            <mxPoint x="1468" y="3240"/>
                        </Array>
                    </mxGeometry>
                </mxCell>
                <mxCell id="8h195-x0wi-ZMAP4BCXr-112" value="manages users" style="curved=1;startArrow=diamondThin;startSize=14;startFill=0;endArrow=none;exitX=0.5;exitY=1;entryX=0;entryY=0.05;rounded=0;fontSize=18;" parent="WIyWlLk6GJQsqaUBKTNV-1" source="8h195-x0wi-ZMAP4BCXr-57" target="8h195-x0wi-ZMAP4BCXr-69" edge="1">
                    <mxGeometry x="-0.3503" y="9" relative="1" as="geometry">
                        <Array as="points">
                            <mxPoint x="340" y="4110"/>
                        </Array>
                        <mxPoint as="offset"/>
                    </mxGeometry>
                </mxCell>
                <mxCell id="8h195-x0wi-ZMAP4BCXr-113" value="owns budgets" style="curved=0;startArrow=diamondThin;startSize=14;startFill=1;endArrow=none;exitX=0.516;exitY=1.082;rounded=1;entryX=0.5;entryY=0;entryDx=0;entryDy=0;exitDx=0;exitDy=0;exitPerimeter=0;fontSize=18;" parent="WIyWlLk6GJQsqaUBKTNV-1" source="8h195-x0wi-ZMAP4BCXr-34" target="8h195-x0wi-ZMAP4BCXr-69" edge="1">
                    <mxGeometry relative="1" as="geometry">
                        <Array as="points">
                            <mxPoint x="1473" y="3660"/>
                            <mxPoint x="1050" y="3660"/>
                            <mxPoint x="1041" y="4000"/>
                            <mxPoint x="588" y="4000"/>
                        </Array>
                        <mxPoint x="590" y="4090" as="targetPoint"/>
                    </mxGeometry>
                </mxCell>
                <mxCell id="8h195-x0wi-ZMAP4BCXr-114" value="owns expenses" style="curved=0;startArrow=diamondThin;startSize=14;startFill=1;endArrow=none;exitX=0.117;exitY=1.111;entryX=0.995;entryY=0.061;rounded=1;exitDx=0;exitDy=0;exitPerimeter=0;entryDx=0;entryDy=0;entryPerimeter=0;fontSize=18;" parent="WIyWlLk6GJQsqaUBKTNV-1" source="8h195-x0wi-ZMAP4BCXr-47" target="8h195-x0wi-ZMAP4BCXr-69" edge="1">
                    <mxGeometry relative="1" as="geometry">
                        <Array as="points">
                            <mxPoint x="1972" y="4120"/>
                        </Array>
                    </mxGeometry>
                </mxCell>
                <mxCell id="8h195-x0wi-ZMAP4BCXr-115" value="uses for searching" style="curved=0;dashed=1;startArrow=none;endArrow=open;endSize=12;exitX=1;exitY=0.64;entryX=0.5;entryY=0;rounded=1;fontSize=18;" parent="WIyWlLk6GJQsqaUBKTNV-1" source="8h195-x0wi-ZMAP4BCXr-0" target="8h195-x0wi-ZMAP4BCXr-79" edge="1">
                    <mxGeometry relative="1" as="geometry">
                        <Array as="points">
                            <mxPoint x="1879" y="3240"/>
                        </Array>
                    </mxGeometry>
                </mxCell>
                <mxCell id="8h195-x0wi-ZMAP4BCXr-116" value="manipulates" style="curved=0;dashed=1;startArrow=none;endArrow=open;endSize=12;exitX=1;exitY=0.6;entryX=0.66;entryY=0;rounded=1;fontSize=18;" parent="WIyWlLk6GJQsqaUBKTNV-1" source="8h195-x0wi-ZMAP4BCXr-0" target="8h195-x0wi-ZMAP4BCXr-35" edge="1">
                    <mxGeometry relative="1" as="geometry">
                        <Array as="points">
                            <mxPoint x="2161" y="3240"/>
                            <mxPoint x="2161" y="3625"/>
                        </Array>
                    </mxGeometry>
                </mxCell>
                <mxCell id="8h195-x0wi-ZMAP4BCXr-117" value="creates/edits" style="curved=0;dashed=1;startArrow=none;endArrow=open;endSize=12;exitX=1;exitY=0.58;entryX=1.003;entryY=0.067;rounded=1;entryDx=0;entryDy=0;entryPerimeter=0;fontSize=18;" parent="WIyWlLk6GJQsqaUBKTNV-1" source="8h195-x0wi-ZMAP4BCXr-0" target="8h195-x0wi-ZMAP4BCXr-48" edge="1">
                    <mxGeometry relative="1" as="geometry">
                        <Array as="points">
                            <mxPoint x="2295" y="3240"/>
                            <mxPoint x="2300" y="4111"/>
                        </Array>
                    </mxGeometry>
                </mxCell>
                <mxCell id="8h195-x0wi-ZMAP4BCXr-118" value="has" style="curved=0;startArrow=diamondThin;startSize=14;startFill=1;endArrow=none;exitX=0.647;exitY=1.041;entryX=0;entryY=0.22;rounded=1;exitDx=0;exitDy=0;exitPerimeter=0;fontSize=18;" parent="WIyWlLk6GJQsqaUBKTNV-1" source="8h195-x0wi-ZMAP4BCXr-34" target="8h195-x0wi-ZMAP4BCXr-35" edge="1">
                    <mxGeometry x="-0.3287" relative="1" as="geometry">
                        <Array as="points">
                            <mxPoint x="1510" y="3660"/>
                            <mxPoint x="1760" y="3660"/>
                            <mxPoint x="1760" y="3739"/>
                        </Array>
                        <mxPoint as="offset"/>
                    </mxGeometry>
                </mxCell>
                <mxCell id="8h195-x0wi-ZMAP4BCXr-119" value="contains" style="curved=0;startArrow=diamondThin;startSize=14;startFill=1;endArrow=none;entryX=0.5;entryY=0;rounded=0;entryDx=0;entryDy=0;exitX=0.619;exitY=0.969;exitDx=0;exitDy=0;exitPerimeter=0;fontSize=18;" parent="WIyWlLk6GJQsqaUBKTNV-1" source="8h195-x0wi-ZMAP4BCXr-47" target="8h195-x0wi-ZMAP4BCXr-48" edge="1">
                    <mxGeometry relative="1" as="geometry">
                        <Array as="points">
                            <mxPoint x="2135" y="4060"/>
                        </Array>
                        <mxPoint x="2140" y="4020" as="sourcePoint"/>
                    </mxGeometry>
                </mxCell>
            </root>
        </mxGraphModel>
    </diagram>
</mxfile>